<svg width="194" height="66" viewBox="0 0 194 66" fill="none" xmlns="http://www.w3.org/2000/svg">
<rect x="1" y="1" width="192" height="64" rx="12" fill="#0B090D"/>
<path d="M41.1068 32.823C41.1248 31.4343 41.4947 30.0726 42.1822 28.8648C42.8696 27.6569 43.8523 26.6421 45.0388 25.9147C44.285 24.8412 43.2907 23.9579 42.1347 23.3347C40.9787 22.7115 39.693 22.3657 38.3795 22.3247C35.5777 22.0314 32.8615 23.9965 31.4337 23.9965C29.9783 23.9965 27.78 22.3538 25.4129 22.4024C23.8817 22.4517 22.3895 22.8957 21.0816 23.6911C19.7737 24.4865 18.6947 25.6062 17.9498 26.9411C14.723 32.5123 17.1299 40.7001 20.221 45.2035C21.7675 47.4086 23.5749 49.8719 25.94 49.7845C28.2543 49.6888 29.1186 48.3129 31.9122 48.3129C34.6799 48.3129 35.4908 49.7845 37.9038 49.729C40.3872 49.6888 41.9518 47.514 43.4441 45.288C44.5553 43.7167 45.4104 41.9801 45.9776 40.1425C44.5348 39.534 43.3036 38.5155 42.4375 37.2138C41.5713 35.9122 41.1085 34.3852 41.1068 32.823Z" fill="white"/>
<path d="M36.5492 19.363C37.9032 17.7421 38.5703 15.6587 38.4088 13.5552C36.3401 13.7718 34.4293 14.7578 33.0569 16.3165C32.386 17.078 31.8721 17.9639 31.5446 18.9235C31.2172 19.8832 31.0826 20.8977 31.1487 21.9093C32.1834 21.9199 33.207 21.6963 34.1424 21.2552C35.0779 20.8141 35.9008 20.1672 36.5492 19.363Z" fill="white"/>
<path d="M68.8727 44.4234H61.278L59.4541 49.7938H56.2373L63.4309 29.925H66.773L73.9666 49.7938H70.695L68.8727 44.4234ZM62.0646 41.9453H68.0846L65.1169 33.2297H65.0338L62.0646 41.9453Z" fill="white"/>
<path d="M89.5023 42.5516C89.5023 47.0532 87.0861 49.9454 83.44 49.9454C82.5163 49.9936 81.5978 49.7814 80.7894 49.3332C79.9811 48.885 79.3157 48.2188 78.8694 47.411H78.8004V54.586H75.8186V35.3079H78.7048V37.7173H78.7596C79.2265 36.9133 79.9031 36.2506 80.7176 35.7997C81.5321 35.3487 82.454 35.1264 83.3851 35.1563C87.072 35.1563 89.5023 38.0626 89.5023 42.5516ZM86.4374 42.5516C86.4374 39.6188 84.9175 37.6907 82.5986 37.6907C80.3203 37.6907 78.7879 39.6594 78.7879 42.5516C78.7879 45.4704 80.3203 47.4251 82.5986 47.4251C84.9176 47.4251 86.4374 45.511 86.4374 42.5516H86.4374Z" fill="white"/>
<path d="M105.492 42.5516C105.492 47.0532 103.075 49.9454 99.4285 49.9454C98.5049 49.9936 97.5863 49.7814 96.778 49.3332C95.9696 48.885 95.3042 48.2188 94.8579 47.411H94.7889V54.586H91.8071V35.3079H94.6933V37.7173H94.7482C95.215 36.9133 95.8917 36.2506 96.7062 35.7997C97.5206 35.3487 98.4425 35.1264 99.3736 35.1563C103.061 35.1563 105.492 38.0626 105.492 42.5516ZM102.426 42.5516C102.426 39.6188 100.906 37.6907 98.5871 37.6907C96.3088 37.6907 94.7764 39.6594 94.7764 42.5516C94.7764 45.4704 96.3088 47.4251 98.5871 47.4251C100.906 47.4251 102.426 45.511 102.426 42.5516Z" fill="white"/>
<path d="M116.057 44.2578C116.278 46.2281 118.197 47.5218 120.82 47.5218C123.334 47.5218 125.142 46.2281 125.142 44.4515C125.142 42.9093 124.051 41.9859 121.469 41.3531L118.887 40.7327C115.228 39.8515 113.53 38.1452 113.53 35.3765C113.53 31.9484 116.526 29.5937 120.778 29.5937C124.99 29.5937 127.876 31.9484 127.973 35.3765H124.963C124.783 33.3937 123.139 32.1968 120.737 32.1968C118.335 32.1968 116.692 33.4078 116.692 35.1702C116.692 36.5749 117.741 37.4015 120.31 38.0342L122.505 38.5718C126.593 39.5358 128.29 41.1734 128.29 44.0796C128.29 47.7967 125.322 50.1249 120.599 50.1249C116.181 50.1249 113.197 47.8514 113.005 44.2577L116.057 44.2578Z" fill="white"/>
<path d="M134.728 31.8797V35.3078H137.491V37.6625H134.728V45.6485C134.728 46.8891 135.281 47.4672 136.496 47.4672C136.824 47.4615 137.151 47.4385 137.476 47.3984V49.739C136.931 49.8408 136.376 49.8868 135.82 49.8765C132.879 49.8765 131.732 48.775 131.732 45.9656V37.6625H129.62V35.3078H131.732V31.8797H134.728Z" fill="white"/>
<path d="M139.089 42.5516C139.089 37.9938 141.781 35.1297 145.978 35.1297C150.19 35.1297 152.87 37.9937 152.87 42.5516C152.87 47.1219 150.204 49.9735 145.978 49.9735C141.754 49.9735 139.089 47.1219 139.089 42.5516ZM149.831 42.5516C149.831 39.425 148.395 37.5797 145.978 37.5797C143.562 37.5797 142.125 39.4391 142.125 42.5516C142.125 45.6906 143.562 47.5219 145.978 47.5219C148.395 47.5219 149.831 45.6906 149.831 42.5516H149.831Z" fill="white"/>
<path d="M155.328 35.3078H158.172V37.7734H158.241C158.433 37.0034 158.886 36.3228 159.522 35.8462C160.158 35.3696 160.94 35.126 161.735 35.1562C162.079 35.1551 162.421 35.1923 162.757 35.2672V38.0484C162.323 37.9163 161.87 37.8556 161.417 37.8688C160.984 37.8512 160.552 37.9274 160.151 38.092C159.75 38.2566 159.39 38.5058 159.095 38.8224C158.8 39.1391 158.577 39.5156 158.441 39.9263C158.306 40.337 158.261 40.772 158.31 41.2016V49.7938H155.328L155.328 35.3078Z" fill="white"/>
<path d="M176.504 45.5391C176.103 48.1688 173.535 49.9735 170.249 49.9735C166.023 49.9735 163.4 47.15 163.4 42.6203C163.4 38.0766 166.037 35.1297 170.124 35.1297C174.143 35.1297 176.67 37.8828 176.67 42.275V43.2938H166.41V43.4735C166.363 44.0066 166.43 44.5436 166.607 45.049C166.784 45.5543 167.066 46.0164 167.436 46.4045C167.805 46.7925 168.253 47.0978 168.75 47.2999C169.247 47.5019 169.782 47.5963 170.318 47.5766C171.023 47.6424 171.73 47.4797 172.334 47.1126C172.939 46.7455 173.408 46.1936 173.673 45.5391L176.504 45.5391ZM166.424 41.2157H173.687C173.714 40.7363 173.641 40.2566 173.473 39.8067C173.305 39.3567 173.046 38.9463 172.711 38.601C172.376 38.2558 171.974 37.9833 171.529 37.8005C171.084 37.6178 170.605 37.5288 170.124 37.5391C169.638 37.5362 169.157 37.6292 168.708 37.8128C168.258 37.9964 167.85 38.2669 167.506 38.6087C167.162 38.9505 166.889 39.3569 166.704 39.8043C166.518 40.2518 166.423 40.7314 166.424 41.2157V41.2157Z" fill="white"/>
<path d="M61.6918 14.9696C62.3169 14.9249 62.9442 15.0191 63.5284 15.2454C64.1126 15.4716 64.6392 15.8244 65.0701 16.2782C65.5011 16.732 65.8256 17.2755 66.0204 17.8696C66.2152 18.4636 66.2754 19.0933 66.1966 19.7134C66.1966 22.7634 64.5435 24.5166 61.6918 24.5166H58.2336V14.9696H61.6918ZM59.7206 23.1664H61.5257C61.9724 23.193 62.4194 23.12 62.8342 22.9526C63.249 22.7852 63.6212 22.5277 63.9237 22.1988C64.2261 21.8699 64.4512 21.4779 64.5825 21.0513C64.7139 20.6247 64.7482 20.1743 64.6829 19.7328C64.7434 19.2931 64.7057 18.8455 64.5723 18.422C64.4389 17.9985 64.2133 17.6097 63.9115 17.2834C63.6098 16.9571 63.2394 16.7015 62.8269 16.5347C62.4144 16.3679 61.9701 16.2942 61.5257 16.3188H59.7206V23.1664Z" fill="white"/>
<path d="M67.8762 20.911C67.8308 20.4375 67.8851 19.9598 68.0357 19.5085C68.1863 19.0572 68.4297 18.6422 68.7505 18.2903C69.0714 17.9383 69.4624 17.6571 69.8986 17.4646C70.3348 17.2722 70.8065 17.1728 71.2834 17.1728C71.7604 17.1728 72.2321 17.2722 72.6683 17.4646C73.1045 17.6571 73.4955 17.9383 73.8163 18.2903C74.1371 18.6422 74.3806 19.0572 74.5312 19.5085C74.6817 19.9598 74.736 20.4375 74.6906 20.911C74.7369 21.385 74.6832 21.8633 74.5331 22.3154C74.3829 22.7674 74.1396 23.1831 73.8187 23.5358C73.4978 23.8884 73.1065 24.1703 72.6698 24.3631C72.2332 24.556 71.761 24.6556 71.2834 24.6556C70.8059 24.6556 70.3336 24.556 69.897 24.3631C69.4604 24.1703 69.0691 23.8884 68.7482 23.5358C68.4273 23.1831 68.1839 22.7674 68.0338 22.3154C67.8836 21.8633 67.8299 21.385 67.8762 20.911ZM73.224 20.911C73.224 19.3493 72.5205 18.436 71.2858 18.436C70.0464 18.436 69.3491 19.3493 69.3491 20.911C69.3491 22.4852 70.0464 23.3915 71.2858 23.3915C72.5205 23.3915 73.224 22.479 73.224 20.911H73.224Z" fill="white"/>
<path d="M83.7489 24.5164H82.2698L80.7766 19.2102H80.6638L79.1768 24.5164H77.7117L75.7202 17.3117H77.1665L78.4607 22.8093H78.5673L80.0527 17.3117H81.4206L82.906 22.8093H83.0188L84.3067 17.3117H85.7326L83.7489 24.5164Z" fill="white"/>
<path d="M87.4075 17.3117H88.7801V18.4562H88.8866C89.0674 18.0452 89.3722 17.7006 89.7587 17.4705C90.1452 17.2404 90.594 17.1363 91.0427 17.1726C91.3942 17.1463 91.7472 17.1992 92.0755 17.3273C92.4037 17.4555 92.6989 17.6556 92.9391 17.913C93.1792 18.1703 93.3582 18.4783 93.4629 18.814C93.5675 19.1497 93.595 19.5046 93.5434 19.8523V24.5163H92.1175V20.2094C92.1175 19.0516 91.613 18.4758 90.5585 18.4758C90.3198 18.4647 90.0815 18.5052 89.86 18.5945C89.6385 18.6839 89.439 18.8199 89.2751 18.9933C89.1113 19.1667 88.987 19.3734 88.9107 19.5992C88.8344 19.825 88.8081 20.0646 88.8333 20.3016V24.5164H87.4075L87.4075 17.3117Z" fill="white"/>
<path d="M95.8154 14.4992H97.2413V24.5164H95.8154V14.4992Z" fill="white"/>
<path d="M99.2234 20.911C99.178 20.4375 99.2323 19.9598 99.3829 19.5084C99.5335 19.0571 99.7771 18.6421 100.098 18.2902C100.419 17.9382 100.81 17.657 101.246 17.4645C101.682 17.2721 102.154 17.1727 102.631 17.1727C103.108 17.1727 103.58 17.2721 104.016 17.4645C104.452 17.657 104.843 17.9382 105.164 18.2902C105.485 18.6421 105.728 19.0571 105.879 19.5084C106.03 19.9598 106.084 20.4375 106.039 20.911C106.085 21.385 106.031 21.8633 105.881 22.3154C105.731 22.7674 105.487 23.1831 105.166 23.5358C104.845 23.8884 104.454 24.1702 104.017 24.3631C103.581 24.5559 103.108 24.6555 102.631 24.6555C102.153 24.6555 101.681 24.5559 101.244 24.3631C100.808 24.1702 100.416 23.8884 100.096 23.5358C99.7747 23.1831 99.5313 22.7674 99.3811 22.3154C99.2308 21.8633 99.1771 21.385 99.2234 20.911ZM104.571 20.911C104.571 19.3493 103.868 18.436 102.633 18.436C101.393 18.436 100.696 19.3493 100.696 20.911C100.696 22.4852 101.394 23.3915 102.633 23.3915C103.868 23.3915 104.571 22.479 104.571 20.911H104.571Z" fill="white"/>
<path d="M107.54 22.4789C107.54 21.182 108.508 20.4344 110.227 20.3281L112.184 20.2156V19.5937C112.184 18.8328 111.679 18.4031 110.705 18.4031C109.909 18.4031 109.357 18.6945 109.199 19.2039H107.818C107.964 17.9664 109.132 17.1727 110.77 17.1727C112.582 17.1727 113.603 18.0719 113.603 19.5937V24.5164H112.231V23.5039H112.118C111.889 23.8671 111.567 24.1632 111.186 24.3619C110.805 24.5606 110.378 24.6549 109.948 24.6351C109.645 24.6666 109.338 24.6343 109.048 24.5404C108.758 24.4465 108.491 24.293 108.264 24.0898C108.037 23.8867 107.855 23.6384 107.731 23.3609C107.606 23.0834 107.541 22.783 107.54 22.4789ZM112.184 21.8633V21.2609L110.419 21.3734C109.425 21.4398 108.973 21.7773 108.973 22.4125C108.973 23.0609 109.537 23.4383 110.313 23.4383C110.54 23.4612 110.77 23.4383 110.988 23.371C111.206 23.3036 111.409 23.1932 111.583 23.0462C111.758 22.8993 111.901 22.7188 112.004 22.5156C112.107 22.3124 112.168 22.0905 112.184 21.8633Z" fill="white"/>
<path d="M115.478 20.911C115.478 18.6344 116.651 17.1922 118.477 17.1922C118.928 17.1715 119.376 17.2793 119.769 17.5032C120.161 17.727 120.481 18.0576 120.692 18.4562H120.799V14.4992H122.225V24.5164H120.858V23.3781H120.745C120.518 23.7741 120.187 24.1006 119.787 24.3221C119.387 24.5437 118.934 24.652 118.477 24.6352C116.639 24.6352 115.478 23.193 115.478 20.911ZM116.95 20.911C116.95 22.4391 117.673 23.3586 118.881 23.3586C120.083 23.3586 120.825 22.4258 120.825 20.9172C120.825 19.4157 120.075 18.4696 118.881 18.4696C117.681 18.4696 116.95 19.3953 116.95 20.911H116.95Z" fill="white"/>
<path d="M128.124 20.911C128.078 20.4375 128.133 19.9598 128.283 19.5085C128.434 19.0572 128.677 18.6422 128.998 18.2903C129.319 17.9383 129.71 17.6571 130.146 17.4646C130.582 17.2722 131.054 17.1728 131.531 17.1728C132.008 17.1728 132.48 17.2722 132.916 17.4646C133.352 17.6571 133.743 17.9383 134.064 18.2903C134.385 18.6422 134.628 19.0572 134.779 19.5085C134.929 19.9598 134.984 20.4375 134.938 20.911C134.984 21.385 134.931 21.8633 134.781 22.3154C134.63 22.7674 134.387 23.1831 134.066 23.5358C133.745 23.8884 133.354 24.1703 132.917 24.3631C132.481 24.556 132.009 24.6556 131.531 24.6556C131.053 24.6556 130.581 24.556 130.145 24.3631C129.708 24.1703 129.317 23.8884 128.996 23.5358C128.675 23.1831 128.431 22.7674 128.281 22.3154C128.131 21.8633 128.078 21.385 128.124 20.911ZM133.472 20.911C133.472 19.3493 132.768 18.436 131.533 18.436C130.294 18.436 129.597 19.3493 129.597 20.911C129.597 22.4852 130.294 23.3915 131.533 23.3915C132.768 23.3915 133.472 22.479 133.472 20.911Z" fill="white"/>
<path d="M136.851 17.3117H138.224V18.4562H138.33C138.511 18.0452 138.816 17.7006 139.203 17.4705C139.589 17.2404 140.038 17.1363 140.487 17.1726C140.838 17.1463 141.191 17.1992 141.519 17.3273C141.848 17.4555 142.143 17.6556 142.383 17.913C142.623 18.1703 142.802 18.4783 142.907 18.814C143.011 19.1497 143.039 19.5046 142.987 19.8523V24.5163H141.561V20.2094C141.561 19.0516 141.057 18.4758 140.002 18.4758C139.764 18.4647 139.525 18.5052 139.304 18.5945C139.082 18.6839 138.883 18.8199 138.719 18.9933C138.555 19.1667 138.431 19.3734 138.355 19.5992C138.278 19.825 138.252 20.0646 138.277 20.3016V24.5164H136.851V17.3117Z" fill="white"/>
<path d="M151.044 15.518V17.3446H152.609V18.5422H151.044V22.2469C151.044 23.0016 151.356 23.3321 152.066 23.3321C152.247 23.3315 152.429 23.3205 152.609 23.2993V24.4836C152.353 24.5293 152.094 24.5536 151.834 24.5563C150.248 24.5563 149.617 24 149.617 22.611V18.5422H148.47V17.3445H149.617V15.518H151.044Z" fill="white"/>
<path d="M154.557 14.4992H155.97V18.4696H156.083C156.273 18.0546 156.586 17.7081 156.98 17.4771C157.374 17.2462 157.831 17.1421 158.286 17.1789C158.636 17.16 158.986 17.2182 159.31 17.3494C159.635 17.4807 159.926 17.6818 160.164 17.9383C160.401 18.1949 160.579 18.5006 160.685 18.8336C160.791 19.1666 160.821 19.5187 160.774 19.8649V24.5164H159.347V20.2156C159.347 19.0649 158.81 18.482 157.802 18.482C157.557 18.462 157.311 18.4956 157.08 18.5805C156.849 18.6654 156.64 18.7995 156.467 18.9735C156.293 19.1474 156.16 19.3571 156.077 19.5877C155.993 19.8183 155.961 20.0644 155.983 20.3086V24.5164H154.557L154.557 14.4992Z" fill="white"/>
<path d="M169.088 22.5711C168.895 23.2296 168.475 23.7992 167.903 24.1802C167.33 24.5612 166.642 24.7295 165.958 24.6555C165.482 24.668 165.009 24.5771 164.571 24.3891C164.134 24.201 163.743 23.9203 163.426 23.5665C163.108 23.2127 162.872 22.7942 162.732 22.3401C162.593 21.886 162.555 21.4071 162.62 20.9368C162.557 20.4649 162.596 19.9851 162.735 19.5296C162.873 19.0741 163.109 18.6537 163.424 18.2968C163.74 17.9398 164.129 17.6548 164.565 17.4608C165.001 17.2669 165.474 17.1686 165.951 17.1727C167.962 17.1727 169.174 18.5423 169.174 20.8047V21.3008H164.073V21.3805C164.05 21.6449 164.084 21.911 164.171 22.1618C164.257 22.4126 164.396 22.6426 164.577 22.8369C164.758 23.0312 164.978 23.1857 165.223 23.2903C165.467 23.3949 165.731 23.4475 165.997 23.4445C166.338 23.4854 166.683 23.4241 166.989 23.2686C167.296 23.113 167.548 22.8703 167.716 22.5711L169.088 22.5711ZM164.073 20.2493H167.722C167.74 20.0075 167.707 19.7646 167.625 19.5362C167.543 19.3079 167.415 19.0991 167.247 18.9233C167.08 18.7476 166.877 18.6087 166.653 18.5156C166.428 18.4225 166.187 18.3773 165.943 18.3829C165.697 18.3798 165.452 18.4259 165.224 18.5187C164.995 18.6114 164.788 18.7487 164.613 18.9227C164.439 19.0966 164.301 19.3036 164.209 19.5314C164.116 19.7593 164.069 20.0033 164.073 20.2493H164.073Z" fill="white"/>
<rect x="1" y="1" width="192" height="64" rx="12" stroke="#1F1B26" stroke-width="2"/>
</svg>
