<svg width="218" height="66" viewBox="0 0 218 66" fill="none" xmlns="http://www.w3.org/2000/svg">
<rect x="1" y="1" width="216" height="64" rx="12" fill="#0B090D"/>
<path d="M76.8719 17.384C76.8982 17.9707 76.8054 18.5568 76.5992 19.1067C76.393 19.6567 76.0775 20.1592 75.6719 20.584C75.2174 21.0533 74.6689 21.4213 74.0623 21.6639C73.4557 21.9065 72.8047 22.0183 72.1519 21.992C71.4954 22.0066 70.8428 21.8864 70.2346 21.6387C69.6264 21.391 69.0755 21.0211 68.6159 20.552C67.6836 19.5983 67.1616 18.3176 67.1616 16.984C67.1616 15.6503 67.6836 14.3696 68.6159 13.416C69.3287 12.7195 70.2315 12.2492 71.2108 12.0641C72.19 11.8791 73.2021 11.9876 74.1199 12.376C74.6969 12.6132 75.2115 12.98 75.6239 13.448L74.7759 14.296C74.4582 13.9132 74.0556 13.6098 73.6001 13.4098C73.1446 13.2099 72.6488 13.1188 72.1519 13.144C71.5248 13.1483 70.9082 13.3062 70.3562 13.6038C69.8041 13.9015 69.3334 14.3298 68.9851 14.8514C68.6368 15.373 68.4215 15.9719 68.3582 16.5959C68.2948 17.2199 68.3852 17.8498 68.6215 18.4308C68.8578 19.0117 69.2329 19.526 69.7138 19.9285C70.1947 20.3311 70.767 20.6097 71.3805 20.7401C71.9939 20.8704 72.63 20.8485 73.2331 20.6762C73.8361 20.504 74.3878 20.1867 74.8399 19.752C75.3287 19.2161 75.612 18.5247 75.6399 17.8H72.1519V16.648H76.8079C76.8444 16.8918 76.8657 17.1376 76.8719 17.384Z" fill="white" stroke="white" stroke-width="0.29913" stroke-miterlimit="10"/>
<path d="M84.2001 13.384H79.8801V16.424H83.8161V17.576H79.8801V20.616H84.2001V21.8H78.6321V12.2H84.2001V13.384Z" fill="white" stroke="white" stroke-width="0.29913" stroke-miterlimit="10"/>
<path d="M89.4481 21.8H88.2161V13.384H85.5281V12.2H92.2001V13.384H89.4481V21.8Z" fill="white" stroke="white" stroke-width="0.29913" stroke-miterlimit="10"/>
<path d="M96.9041 21.8V12.2H98.1361V21.8H96.9041Z" fill="white" stroke="white" stroke-width="0.29913" stroke-miterlimit="10"/>
<path d="M103.608 21.8H102.376V13.384H99.688V12.2H106.28V13.384H103.608V21.8Z" fill="white" stroke="white" stroke-width="0.29913" stroke-miterlimit="10"/>
<path d="M118.776 20.552C118.314 21.0145 117.765 21.3814 117.161 21.6317C116.557 21.882 115.91 22.0108 115.256 22.0108C114.602 22.0108 113.955 21.882 113.351 21.6317C112.747 21.3814 112.198 21.0145 111.736 20.552C110.831 19.5905 110.328 18.3201 110.328 17C110.328 15.6799 110.831 14.4095 111.736 13.448C112.188 12.9725 112.735 12.5971 113.341 12.3463C113.948 12.0955 114.6 11.9748 115.256 11.992C115.911 11.9816 116.561 12.1054 117.167 12.3559C117.772 12.6063 118.32 12.9779 118.776 13.448C119.236 13.916 119.598 14.4714 119.84 15.0815C120.081 15.6915 120.198 16.3439 120.184 17C120.205 17.6569 120.091 18.3111 119.849 18.9221C119.606 19.5331 119.241 20.0879 118.776 20.552ZM112.648 19.752C112.989 20.0974 113.395 20.3716 113.843 20.5588C114.29 20.746 114.771 20.8424 115.256 20.8424C115.741 20.8424 116.222 20.746 116.669 20.5588C117.117 20.3716 117.523 20.0974 117.864 19.752C118.554 19.0018 118.938 18.0195 118.938 17C118.938 15.9805 118.554 14.9982 117.864 14.248C117.523 13.9026 117.117 13.6283 116.669 13.4411C116.222 13.2539 115.741 13.1575 115.256 13.1575C114.771 13.1575 114.29 13.2539 113.843 13.4411C113.395 13.6283 112.989 13.9026 112.648 14.248C111.958 14.9982 111.574 15.9805 111.574 17C111.574 18.0195 111.958 19.0018 112.648 19.752Z" fill="white" stroke="white" stroke-width="0.29913" stroke-miterlimit="10"/>
<path d="M121.928 21.8V12.2H123.416L128.088 19.672V17.816V12.2H129.32V21.8H128.04L123.16 13.976V15.816V21.8H121.928Z" fill="white" stroke="white" stroke-width="0.29913" stroke-miterlimit="10"/>
<path d="M110.024 35.8C108.676 35.8032 107.359 36.206 106.24 36.9576C105.121 37.7092 104.25 38.7758 103.737 40.0224C103.224 41.2691 103.092 42.6399 103.358 43.9614C103.624 45.283 104.276 46.4959 105.232 47.4469C106.187 48.3979 107.403 49.0442 108.726 49.3041C110.049 49.564 111.419 49.4258 112.663 48.907C113.907 48.3882 114.97 47.5121 115.716 46.3895C116.463 45.2668 116.859 43.9481 116.856 42.6C116.869 41.7007 116.701 40.808 116.362 39.975C116.023 39.142 115.519 38.3857 114.882 37.7512C114.245 37.1168 113.486 36.617 112.651 36.2818C111.817 35.9466 110.923 35.7828 110.024 35.8ZM110.024 46.728C109.198 46.7858 108.373 46.5937 107.658 46.1766C106.942 45.7596 106.368 45.1369 106.011 44.3895C105.654 43.6421 105.53 42.8046 105.655 41.9859C105.781 41.1671 106.149 40.4049 106.714 39.7985C107.278 39.192 108.011 38.7693 108.819 38.5853C109.626 38.4012 110.471 38.4644 111.242 38.7666C112.013 39.0687 112.676 39.5959 113.143 40.2795C113.611 40.9632 113.862 41.7717 113.864 42.6C113.89 43.1248 113.81 43.6495 113.63 44.1431C113.45 44.6367 113.173 45.0892 112.815 45.4739C112.457 45.8586 112.025 46.1678 111.546 46.3832C111.067 46.5986 110.549 46.7158 110.024 46.728ZM95.112 35.8C93.7639 35.8032 92.4471 36.206 91.3279 36.9576C90.2088 37.7092 89.3377 38.7758 88.8248 40.0224C88.3118 41.2691 88.18 42.6399 88.4461 43.9614C88.7122 45.283 89.3642 46.4959 90.3197 47.4469C91.2752 48.3979 92.4912 49.0442 93.814 49.3041C95.1368 49.564 96.5069 49.4258 97.7512 48.907C98.9954 48.3882 100.058 47.5121 100.804 46.3895C101.551 45.2668 101.947 43.9481 101.944 42.6C101.957 41.7007 101.789 40.808 101.45 39.975C101.111 39.142 100.607 38.3857 99.97 37.7512C99.3326 37.1168 98.5739 36.617 97.7393 36.2818C96.9048 35.9466 96.0112 35.7828 95.112 35.8ZM95.112 46.728C94.2857 46.7858 93.4612 46.5937 92.7456 46.1766C92.0299 45.7596 91.4563 45.1369 91.0992 44.3895C90.7422 43.6421 90.6182 42.8046 90.7435 41.9859C90.8687 41.1671 91.2374 40.4049 91.8016 39.7985C92.3657 39.192 93.0993 38.7693 93.9068 38.5853C94.7144 38.4012 95.5587 38.4644 96.3299 38.7666C97.1011 39.0687 97.7636 39.5959 98.2312 40.2795C98.6988 40.9632 98.95 41.7717 98.952 42.6C98.9778 43.1248 98.8982 43.6495 98.718 44.1431C98.5377 44.6367 98.2605 45.0892 97.9026 45.4739C97.5447 45.8586 97.1134 46.1678 96.6342 46.3832C96.1549 46.5986 95.6373 46.7158 95.112 46.728ZM77.384 37.896V40.776H84.296C84.1876 42.1325 83.6238 43.4125 82.696 44.408C82.0027 45.1144 81.1687 45.6674 80.2482 46.0312C79.3276 46.3951 78.341 46.5616 77.352 46.52C75.3151 46.52 73.3617 45.7109 71.9214 44.2706C70.4811 42.8303 69.672 40.8769 69.672 38.84C69.672 36.8032 70.4811 34.8497 71.9214 33.4094C73.3617 31.9692 75.3151 31.16 77.352 31.16C79.3047 31.131 81.1902 31.8725 82.6 33.224L84.632 31.192C83.6784 30.2488 82.5461 29.5054 81.3015 29.0054C80.057 28.5054 78.7251 28.2588 77.384 28.28C75.9616 28.2247 74.5427 28.457 73.2122 28.9632C71.8817 29.4693 70.6672 30.2388 69.6412 31.2256C68.6153 32.2124 67.7991 33.3962 67.2416 34.7059C66.6841 36.0157 66.3967 37.4245 66.3967 38.848C66.3967 40.2715 66.6841 41.6803 67.2416 42.9901C67.7991 44.2999 68.6153 45.4836 69.6412 46.4704C70.6672 47.4572 71.8817 48.2267 73.2122 48.7329C74.5427 49.239 75.9616 49.4714 77.384 49.416C78.7527 49.4707 80.1174 49.2352 81.3887 48.7251C82.6599 48.2149 83.8088 47.4417 84.76 46.456C86.4402 44.6103 87.3355 42.1827 87.256 39.688C87.2617 39.0876 87.2135 38.4878 87.112 37.896H77.384ZM149.88 40.136C149.463 38.9084 148.682 37.8365 147.642 37.0622C146.602 36.2879 145.352 35.8477 144.056 35.8C143.181 35.7983 142.315 35.9761 141.511 36.3225C140.707 36.6688 139.983 37.1763 139.383 37.8137C138.783 38.451 138.32 39.2046 138.023 40.0278C137.726 40.8511 137.601 41.7265 137.656 42.6C137.642 44.0606 138.102 45.4864 138.965 46.6644C139.828 47.8425 141.05 48.7096 142.447 49.1362C143.844 49.5629 145.341 49.5262 146.716 49.0315C148.09 48.5369 149.267 47.611 150.072 46.392L147.752 44.792C147.406 45.3685 146.916 45.8445 146.329 46.1729C145.742 46.5012 145.08 46.6706 144.408 46.664C143.715 46.6927 143.029 46.5108 142.44 46.1425C141.852 45.7741 141.389 45.2364 141.112 44.6L150.216 40.84L149.88 40.136ZM140.6 42.408C140.568 41.911 140.635 41.4126 140.797 40.9418C140.96 40.471 141.215 40.0375 141.547 39.6665C141.879 39.2954 142.282 38.9945 142.732 38.7811C143.182 38.5678 143.67 38.4464 144.168 38.424C144.684 38.3926 145.197 38.5139 145.644 38.7729C146.091 39.0319 146.451 39.417 146.68 39.88L140.6 42.408ZM133.208 49H136.2V29H133.208V49ZM128.312 37.32H128.2C127.753 36.811 127.201 36.4045 126.583 36.1284C125.964 35.8522 125.293 35.7129 124.616 35.72C122.867 35.8048 121.219 36.5591 120.011 37.8266C118.804 39.094 118.13 40.7775 118.13 42.528C118.13 44.2786 118.804 45.962 120.011 47.2295C121.219 48.4969 122.867 49.2512 124.616 49.336C125.294 49.3496 125.967 49.2133 126.587 48.9367C127.206 48.6601 127.757 48.2501 128.2 47.736H128.312V48.712C128.312 51.32 126.92 52.712 124.68 52.712C123.932 52.6956 123.205 52.4571 122.593 52.027C121.98 51.5968 121.509 50.9943 121.24 50.296L118.648 51.368C119.127 52.5716 119.96 53.6014 121.037 54.3214C122.114 55.0413 123.385 55.4174 124.68 55.4C128.184 55.4 131.08 53.336 131.08 48.312V36.2H128.312V37.32ZM124.872 46.728C123.824 46.6627 122.84 46.2001 122.12 45.4347C121.401 44.6692 121.001 43.6584 121.001 42.608C121.001 41.5577 121.401 40.5468 122.12 39.7814C122.84 39.0159 123.824 38.5534 124.872 38.488C125.384 38.5101 125.887 38.6351 126.35 38.8554C126.813 39.0758 127.227 39.3871 127.568 39.7707C127.908 40.1543 128.168 40.6025 128.331 41.0886C128.495 41.5747 128.559 42.0887 128.52 42.6C128.564 43.1131 128.503 43.6298 128.341 44.1187C128.179 44.6076 127.92 45.0586 127.579 45.4445C127.238 45.8304 126.822 46.1431 126.357 46.3637C125.892 46.5843 125.387 46.7082 124.872 46.728ZM163.896 29H156.728V49H159.72V41.416H163.896C164.749 41.4773 165.605 41.3622 166.411 41.078C167.217 40.7938 167.957 40.3465 168.582 39.764C169.208 39.1815 169.707 38.4764 170.049 37.6926C170.39 36.9087 170.566 36.0629 170.566 35.208C170.566 34.3531 170.39 33.5073 170.049 32.7235C169.707 31.9396 169.208 31.2345 168.582 30.652C167.957 30.0696 167.217 29.6223 166.411 29.3381C165.605 29.0538 164.749 28.9388 163.896 29ZM163.896 38.6H159.72V31.784H163.96C164.41 31.784 164.855 31.8726 165.27 32.0447C165.686 32.2167 166.063 32.4689 166.381 32.7869C166.699 33.1048 166.951 33.4823 167.123 33.8977C167.295 34.3131 167.384 34.7584 167.384 35.208C167.384 35.6577 167.295 36.1029 167.123 36.5183C166.951 36.9337 166.699 37.3112 166.381 37.6292C166.063 37.9471 165.686 38.1993 165.27 38.3714C164.855 38.5435 164.41 38.632 163.96 38.632L163.896 38.6ZM182.36 35.736C181.27 35.6688 180.185 35.9225 179.238 36.4656C178.291 37.0088 177.524 37.8176 177.032 38.792L179.672 39.896C179.939 39.4151 180.339 39.0216 180.825 38.7633C181.31 38.5049 181.86 38.3926 182.408 38.44C182.788 38.3957 183.173 38.4274 183.54 38.5333C183.908 38.6393 184.25 38.8174 184.548 39.0572C184.846 39.2969 185.093 39.5937 185.275 39.93C185.457 40.2663 185.57 40.6355 185.608 41.016V41.208C184.646 40.7023 183.575 40.4387 182.488 40.44C179.64 40.44 176.728 42.04 176.728 44.952C176.756 45.571 176.908 46.1779 177.176 46.7369C177.443 47.2958 177.82 47.7954 178.284 48.2058C178.748 48.6162 179.29 48.9292 179.878 49.1261C180.465 49.323 181.086 49.3998 181.704 49.352C182.455 49.3936 183.203 49.2347 183.872 48.8916C184.541 48.5486 185.107 48.0338 185.512 47.4H185.608V49H188.488V41.304C188.488 37.8 185.832 35.768 182.424 35.768L182.36 35.736ZM181.992 46.696C181.016 46.696 179.656 46.2 179.656 45C179.656 43.4 181.352 42.856 182.856 42.856C183.806 42.8326 184.746 43.0646 185.576 43.528C185.476 44.3969 185.064 45.2 184.416 45.7884C183.769 46.3767 182.931 46.7106 182.056 46.728L181.992 46.696ZM198.984 36.2L195.56 44.872H195.464L191.912 36.2H188.712L194.04 48.328L191 55.064H194.12L202.312 36.2H198.984ZM172.104 49H175.08V29H172.104V49Z" fill="white"/>
<path d="M17.704 13.064C17.1767 13.6874 16.9077 14.4887 16.9519 15.304V50.696C16.8975 51.5126 17.1678 52.3176 17.704 52.936L17.816 53.064L37.6399 33.24V32.76L17.816 12.952L17.704 13.064Z" fill="url(#paint0_linear_45_1246)"/>
<path d="M44.1999 39.848L37.6399 33.24V32.76L44.1999 26.152L44.3439 26.248L52.1999 30.696C54.4399 31.96 54.4399 34.04 52.1999 35.32L44.3759 39.768L44.1999 39.848Z" fill="url(#paint1_linear_45_1246)"/>
<path d="M44.3921 39.752L37.6401 33L17.7041 52.936C18.1562 53.3384 18.7349 53.5699 19.3399 53.5904C19.9448 53.6108 20.5378 53.4189 21.0161 53.048L44.3921 39.752Z" fill="url(#paint2_linear_45_1246)"/>
<path d="M44.3921 26.248L21.0161 12.968C20.5409 12.5919 19.9484 12.3953 19.3426 12.4128C18.7369 12.4304 18.1567 12.661 17.7041 13.064L37.6401 33L44.3921 26.248Z" fill="url(#paint3_linear_45_1246)"/>
<path opacity="0.2" d="M44.2001 39.608L21.0161 52.808C20.5552 53.1558 19.9935 53.344 19.4161 53.344C18.8387 53.344 18.277 53.1558 17.8161 52.808L17.7041 52.92L17.8161 53.048C18.277 53.3958 18.8387 53.584 19.4161 53.584C19.9935 53.584 20.5552 53.3958 21.0161 53.048L44.3921 39.752L44.2001 39.608Z" fill="white"/>
<path opacity="0.12" d="M17.7039 52.712C17.19 52.0774 16.9381 51.2703 16.9999 50.456V50.696C16.9455 51.5126 17.2157 52.3177 17.7519 52.936L17.8639 52.824L17.7039 52.712Z" fill="white"/>
<path opacity="0.12" d="M52.2 35.08L44.2 39.608L44.344 39.752L52.2 35.304C52.6637 35.1079 53.066 34.7904 53.3644 34.3849C53.6629 33.9794 53.8465 33.501 53.896 33C53.7959 33.4553 53.5903 33.8807 53.2957 34.242C53.0011 34.6033 52.6258 34.8903 52.2 35.08Z" fill="white"/>
<path opacity="0.25" d="M21.0159 13.1921L52.1999 30.92C52.6257 31.1097 53.0011 31.3967 53.2957 31.758C53.5903 32.1193 53.7959 32.5447 53.8959 33C53.8465 32.499 53.6628 32.0206 53.3644 31.6151C53.0659 31.2096 52.6636 30.8921 52.1999 30.696L21.0159 12.9681C18.7919 11.6881 16.9519 12.7441 16.9519 15.3041V15.5441C16.9999 12.9841 18.7919 11.9281 21.0159 13.1921Z" fill="white"/>
<rect x="1" y="1" width="216" height="64" rx="12" stroke="#1F1B26" stroke-width="2"/>
<defs>
<linearGradient id="paint0_linear_45_1246" x1="35.8799" y1="14.936" x2="9.03194" y2="41.784" gradientUnits="userSpaceOnUse">
<stop stop-color="#00A0FF"/>
<stop offset="0.01" stop-color="#00A1FF"/>
<stop offset="0.26" stop-color="#00BEFF"/>
<stop offset="0.51" stop-color="#00D2FF"/>
<stop offset="0.76" stop-color="#00DFFF"/>
<stop offset="1" stop-color="#00E3FF"/>
</linearGradient>
<linearGradient id="paint1_linear_45_1246" x1="55.1279" y1="33" x2="16.4239" y2="33" gradientUnits="userSpaceOnUse">
<stop stop-color="#FFE000"/>
<stop offset="0.41" stop-color="#FFBD00"/>
<stop offset="0.78" stop-color="#FFA500"/>
<stop offset="1" stop-color="#FF9C00"/>
</linearGradient>
<linearGradient id="paint2_linear_45_1246" x1="40.7281" y1="36.68" x2="4.31209" y2="73.0799" gradientUnits="userSpaceOnUse">
<stop stop-color="#FF3A44"/>
<stop offset="1" stop-color="#C31162"/>
</linearGradient>
<linearGradient id="paint3_linear_45_1246" x1="12.6801" y1="1.28799" x2="28.9361" y2="17.544" gradientUnits="userSpaceOnUse">
<stop stop-color="#32A071"/>
<stop offset="0.07" stop-color="#2DA771"/>
<stop offset="0.48" stop-color="#15CF74"/>
<stop offset="0.8" stop-color="#06E775"/>
<stop offset="1" stop-color="#00F076"/>
</linearGradient>
</defs>
</svg>
