<svg width="175" height="39" viewBox="0 0 175 39" fill="none" xmlns="http://www.w3.org/2000/svg">
<path d="M27.193 7.67123H12.8198C12.2332 7.67123 12.1075 7.71348 11.7724 8.05148L0.377084 18.6973C0.0418982 19.0353 0 19.162 0 19.7535V26.0064C0 29.5543 1.75973 31.3288 5.27918 31.3288H19.6524C20.2379 31.3288 20.3636 31.2865 20.6988 30.9485L32.0951 20.3027C32.4292 19.9647 32.4711 19.838 32.4711 19.2465V12.9947C32.4711 9.44571 30.7125 7.67123 27.193 7.67123Z" fill="#653DF5"/>
<path d="M53.8976 22.3242V6.90569H57.9868V30H54.2663L45.0487 14.4474V30H40.9594V6.90569H44.814L53.8976 22.3242ZM76.8777 6.90569V10.5592H66.9562V16.8272H74.7996V20.4807H66.9562V30H62.8669V6.90569H76.8777ZM77.6835 6.90569H94.9791V10.5592H88.3759V30H84.2866V10.5592H77.6835V6.90569ZM105.694 13.9446C110.085 13.9446 113.638 17.397 113.638 22.1567C113.638 26.9163 110.085 30.4022 105.694 30.4022C103.079 30.4022 100.599 29.0615 99.4593 26.9163V30H97.3141V5.8331H99.4593V17.397C100.632 15.2518 103.046 13.9446 105.694 13.9446ZM105.526 28.3576C108.844 28.3576 111.526 25.6091 111.526 22.1231C111.526 18.6707 108.844 15.9892 105.526 15.9892C102.409 15.9892 99.4593 18.4361 99.4593 22.2237C99.4593 25.8437 102.275 28.3576 105.526 28.3576ZM124.036 30.4022C119.578 30.4022 115.858 27.1174 115.858 22.1567C115.858 17.1959 119.578 13.9446 124.036 13.9446C128.494 13.9446 132.248 17.1959 132.248 22.1567C132.248 27.1174 128.494 30.4022 124.036 30.4022ZM124.036 28.3576C127.321 28.3576 130.103 25.8437 130.103 22.1567C130.103 18.4696 127.321 15.9892 124.036 15.9892C120.718 15.9892 118.003 18.4696 118.003 22.1567C118.003 25.8437 120.718 28.3576 124.036 28.3576ZM142.605 30.4022C138.147 30.4022 134.426 27.1174 134.426 22.1567C134.426 17.1959 138.147 13.9446 142.605 13.9446C147.063 13.9446 150.817 17.1959 150.817 22.1567C150.817 27.1174 147.063 30.4022 142.605 30.4022ZM142.605 28.3576C145.89 28.3576 148.672 25.8437 148.672 22.1567C148.672 18.4696 145.89 15.9892 142.605 15.9892C139.287 15.9892 136.572 18.4696 136.572 22.1567C136.572 25.8437 139.287 28.3576 142.605 28.3576ZM158.492 30.4022C155.777 30.4022 153.062 28.8268 152.794 25.8437H154.772C155.006 27.1509 156.213 28.4917 158.492 28.4917C160.738 28.4917 162.112 27.3185 162.112 25.7431C162.112 24.4694 161.241 23.6315 159.632 23.2292L157.386 22.6929C155.174 22.1567 153.397 21.017 153.397 18.4026C153.397 15.8552 155.576 13.9446 158.559 13.9446C161.174 13.9446 163.587 15.3859 163.688 18.2015H161.61C161.509 16.7937 160.135 15.8552 158.593 15.8552C156.783 15.8552 155.543 16.9613 155.543 18.4361C155.543 19.9109 156.816 20.5478 157.956 20.8159L160.269 21.3857C163.319 22.1231 164.258 23.9667 164.258 25.7767C164.258 28.5587 161.744 30.4022 158.492 30.4022ZM170.616 14.3468H174.203V16.1903H170.616V30H168.505V16.1903H165.656V14.3468H168.505V8.48107H170.616V14.3468Z" fill="white"/>
</svg>
