<svg width="14" height="14" viewBox="0 0 14 14" fill="none" xmlns="http://www.w3.org/2000/svg">
<path fill-rule="evenodd" clip-rule="evenodd" d="M0.386458 8.13895L1.31691 9.3557L1.51763 10.8696C1.62966 11.7098 2.28938 12.3711 3.12959 12.4831L4.64819 12.6854L5.86338 13.6143C6.53555 14.1278 7.46912 14.1293 8.14284 13.6143L9.35959 12.6854H9.35648L10.872 12.4847C11.7122 12.3727 12.3735 11.713 12.4855 10.8727L12.6878 9.35414C12.6878 9.35414 13.1576 8.73955 13.6182 8.13895C14.1317 7.46678 14.1317 6.53322 13.6182 5.86105L12.6878 4.6443L12.487 3.13037C12.375 2.29016 11.7153 1.62888 10.8751 1.51685L9.35648 1.31458L8.14129 0.38568C7.46912 -0.127782 6.53555 -0.129338 5.86183 0.38568L4.64508 1.31458H4.64663L3.13114 1.5153C2.29093 1.62732 1.62966 2.28704 1.51763 3.12725L1.31536 4.64586C1.31536 4.64586 0.845462 5.26045 0.384902 5.86105C-0.12856 6.53322 -0.12856 7.46678 0.386458 8.13895Z" fill="#6691FF"/>
<path d="M9.18184 5.91052L6.45894 8.63498L4.8252 7.00124" stroke="white" stroke-width="1.5" stroke-linecap="round" stroke-linejoin="round"/>
</svg>
